{"title":"Preacher S01E09 720p WEB-DL HEVC 2CH x265 [720P][HEVC]","uid":15400641,"size":379966235,"categoryP":"video","categoryS":"hd___tv_shows","magnet":"?xt=urn:btih:e40be79872dd83b5fc47832d4f75453f7d357ea3&amp;dn=Preacher+S01E09+720p+WEB-DL+HEVC+2CH+x265+%5B720P%5D%5BHEVC%5D&amp;tr=udp%3A%2F%2Ftracker.leechers-paradise.org%3A6969&amp;tr=udp%3A%2F%2Fzer0day.ch%3A1337&amp;tr=udp%3A%2F%2Fopen.demonii.com%3A1337&amp;tr=udp%3A%2F%2Ftracker.coppersurfer.tk%3A6969&amp;tr=udp%3A%2F%2Fexodus.desync.com%3A6969","seeders":1,"leechers":0,"uploader":"nayhtut","files":1,"time":1469451828,"description":"[Screenshots]\r\n \nhttps://s32.postimg.org/sturayxjp/Preacher_S01_E09_720p_WEB_DL_HEVC_2_CH_x265_001.jpg \nhttps://s32.postimg.org/7y8gzq1cl/Preacher_S01_E09_720p_WEB_DL_HEVC_2_CH_x265_004.jpg\r\n\r\n\r\n\r\nSource: Preacher S01E09 1080p WEB-DL DD5 1 H264-RARBG (1.78 GB)\r\n\r\n\r\n__--__--__--__--__--__--__--__--__--__--__--__--__--\r\n\r\n\r\nComplete name                            : Preacher.S01E09.720p.WEB-DL.HEVC.2CH.x265.mkv\r\nFormat                                   : Matroska\r\nFormat version                           : Version 4 / Version 2\r\nFile size                                : 362 MiB\r\nDuration                                 : 47mn 40s\r\nOverall bit rate                         : 1 063 Kbps\r\nWriting application                      : Lavf57.25.100\r\nWriting library                          : Lavf57.25.100\r\n\r\nVideo\r\n\r\nID                                       : 1\r\nFormat                                   : V_MPEGH/ISO/HEVC\r\nCodec ID                                 : V_MPEGH/ISO/HEVC\r\nDuration                                 : 47mn 40s\r\nBit rate                                 : 850 Kbps\r\nWidth                                    : 1 280 pixels\r\nHeight                                   : 718 pixels\r\nDisplay aspect ratio                     : 16:9\r\nFrame rate                               : 25.000 fps\r\nBits/(Pixel*Frame)                       : 0.037\r\nStream size                              : 290 MiB (80%)\r\nWriting library                          : Lavc57.48.101 libx265\r\nLanguage                                 : English\r\nDefault                                  : Yes\r\nForced                                   : No\r\nDURATION                                 : 00:47:40.251000000\r\n\r\nAudio\r\n\r\nID                                       : 2\r\nFormat                                   : AC-3\r\nFormat/Info                              : Audio Coding 3\r\nMode extension                           : CM (complete main)\r\nFormat settings, Endianness              : Big\r\nCodec ID                                 : A_AC3\r\nDuration                                 : 47mn 40s\r\nBit rate mode                            : Constant\r\nBit rate                                 : 192 Kbps\r\nChannel(s)                               : 2 channels\r\nChannel positions                        : Front: L R\r\nSampling rate                            : 48.0 KHz\r\nBit depth                                : 16 bits\r\nCompression mode                         : Lossy\r\nStream size                              : 65.5 MiB (18%)\r\nWriting library                          : Lavc57.24.102 ac3\r\nLanguage                                 : English\r\nDefault                                  : Yes\r\nForced                                   : No\r\nDURATION                                 : 00:47:40.223000000\r\n\r\nText\r\n\r\nID                                       : 3\r\nFormat                                   : ASS\r\nCodec ID                                 : S_TEXT/ASS\r\nCodec ID/Info                            : Advanced Sub Station Alpha\r\nCompression mode                         : Lossless\r\nWriting library                          : Lavc57.48.101 ssa\r\nLanguage                                 : English\r\nDefault                                  : Yes\r\nForced                                   : No\r\nDURATION                                 : 00:46:50.224000000\r\n\r\n\r\n__--__--__--__--__--__--__--__--__--__--__--__--__--\r\n\r\n\r\nIMDb: http://www.imdb.com/title/tt5016504\r\n\r\n\r\n__--__--__--__--__--__--__--__--__--__--__--__--__--\r\n\r\n\r\nAfter adding torrent with maget link,\r\n\r\nplease add this  following trackers list to the torrent for better seeds.\r\n\r\n\r\nudp://tracker.coppersurfer.tk:6969/announce\r\n\r\nudp://tracker.opentrackr.org:1337/announce\r\n \nhttp://tracker.baravik.org:6970/announce\r\n \nhttp://tracker2.wasabii.com.tw:6969/announce\r\n\r\nudp://9.rarbg.me:2710/announce\r\n\r\n\r\n__--__--__--__--__--__--__--__--__--__--__--__--__--\r\n\r\n\r\nEnjoy!","torrent":{"xt":"urn:btih:e40be79872dd83b5fc47832d4f75453f7d357ea3","amp;dn":"Preacher+S01E09+720p+WEB-DL+HEVC+2CH+x265+%5B720P%5D%5BHEVC%5D","amp;tr":["udp%3A%2F%2Ftracker.leechers-paradise.org%3A6969","udp%3A%2F%2Fzer0day.ch%3A1337","udp%3A%2F%2Fopen.demonii.com%3A1337","udp%3A%2F%2Ftracker.coppersurfer.tk%3A6969","udp%3A%2F%2Fexodus.desync.com%3A6969"],"infoHash":"e40be79872dd83b5fc47832d4f75453f7d357ea3","infoHashBuffer":{"type":"Buffer","data":[228,11,231,152,114,221,131,181,252,71,131,45,79,117,69,63,125,53,126,163]},"announce":[],"urlList":[]}}